<svg width="18" height="18" viewBox="0 0 18 18" fill="none" xmlns="http://www.w3.org/2000/svg">
<path d="M1.54651 9.261C1.48401 9.09262 1.48401 8.90739 1.54651 8.739C2.15529 7.26289 3.18865 6.00078 4.51559 5.11268C5.84253 4.22457 7.4033 3.75047 9.00001 3.75047C10.5967 3.75047 12.1575 4.22457 13.4844 5.11268C14.8114 6.00078 15.8447 7.26289 16.4535 8.739C16.516 8.90739 16.516 9.09262 16.4535 9.261C15.8447 10.7371 14.8114 11.9992 13.4844 12.8873C12.1575 13.7754 10.5967 14.2495 9.00001 14.2495C7.4033 14.2495 5.84253 13.7754 4.51559 12.8873C3.18865 11.9992 2.15529 10.7371 1.54651 9.261Z" stroke="#9CA3AF" stroke-width="2" stroke-linecap="round" stroke-linejoin="round"/>
<path d="M9 11.25C10.2426 11.25 11.25 10.2426 11.25 9C11.25 7.75736 10.2426 6.75 9 6.75C7.75736 6.75 6.75 7.75736 6.75 9C6.75 10.2426 7.75736 11.25 9 11.25Z" stroke="#9CA3AF" stroke-width="2" stroke-linecap="round" stroke-linejoin="round"/>
</svg>
