<svg width="20" height="20" viewBox="0 0 20 20" fill="none" xmlns="http://www.w3.org/2000/svg">
<path d="M1.66663 7.5C2.32967 7.5 2.96555 7.76339 3.43439 8.23223C3.90323 8.70107 4.16663 9.33696 4.16663 10C4.16663 10.663 3.90323 11.2989 3.43439 11.7678C2.96555 12.2366 2.32967 12.5 1.66663 12.5V14.1667C1.66663 14.6087 1.84222 15.0326 2.15478 15.3452C2.46734 15.6577 2.89127 15.8333 3.33329 15.8333H16.6666C17.1087 15.8333 17.5326 15.6577 17.8451 15.3452C18.1577 15.0326 18.3333 14.6087 18.3333 14.1667V12.5C17.6703 12.5 17.0344 12.2366 16.5655 11.7678C16.0967 11.2989 15.8333 10.663 15.8333 10C15.8333 9.33696 16.0967 8.70107 16.5655 8.23223C17.0344 7.76339 17.6703 7.5 18.3333 7.5V5.83333C18.3333 5.39131 18.1577 4.96738 17.8451 4.65482C17.5326 4.34226 17.1087 4.16667 16.6666 4.16667H3.33329C2.89127 4.16667 2.46734 4.34226 2.15478 4.65482C1.84222 4.96738 1.66663 5.39131 1.66663 5.83333V7.5Z" stroke="#9CA3AF" stroke-width="2" stroke-linecap="round" stroke-linejoin="round"/>
<path d="M10.8334 4.16667V5.83333" stroke="#9CA3AF" stroke-width="2" stroke-linecap="round" stroke-linejoin="round"/>
<path d="M10.8334 14.1667V15.8333" stroke="#9CA3AF" stroke-width="2" stroke-linecap="round" stroke-linejoin="round"/>
<path d="M10.8334 9.16667V10.8333" stroke="#9CA3AF" stroke-width="2" stroke-linecap="round" stroke-linejoin="round"/>
</svg>
