<svg width="65" height="64" viewBox="0 0 65 64" fill="none" xmlns="http://www.w3.org/2000/svg">
<path d="M0.5 32C0.5 14.3269 14.8269 0 32.5 0C50.1731 0 64.5 14.3269 64.5 32C64.5 49.6731 50.1731 64 32.5 64C14.8269 64 0.5 49.6731 0.5 32Z" fill="#7D3EDE"/>
<path d="M41.8333 44V41.3333C41.8333 39.9188 41.2714 38.5623 40.2712 37.5621C39.271 36.5619 37.9144 36 36.5 36H28.5C27.0855 36 25.7289 36.5619 24.7287 37.5621C23.7285 38.5623 23.1666 39.9188 23.1666 41.3333V44" stroke="#FAFAFA" stroke-width="2" stroke-linecap="round" stroke-linejoin="round"/>
<path d="M32.5 30.6667C35.4455 30.6667 37.8333 28.2789 37.8333 25.3333C37.8333 22.3878 35.4455 20 32.5 20C29.5544 20 27.1666 22.3878 27.1666 25.3333C27.1666 28.2789 29.5544 30.6667 32.5 30.6667Z" stroke="#FAFAFA" stroke-width="2" stroke-linecap="round" stroke-linejoin="round"/>
</svg>
